:SAMPLES-PER-SECOND 25
:FULLY-SPECIFIED
:DEGREES
561
root  0.576229 66.4547 2.92943 178.203 12.4232 179.9
RightUpLeg  5.21126 4.54792 3.58868
RightLeg  15.3955 -2.64826 -1.34315
RightFoot  -20.2411 -0.19707 -0.772577
RightToes  2.84633e-005 7.89722e-005 -0.000426369
Spine  1.87631 1.51384 0.287259
Spine1  3.68913 2.90481 1.83015
HEad  33.7823 1.53513 -7.99785
LeftShoulder1  -3.88251e-019 0 -3.92111e-022
LeftArm  -39.4515 13.9702 -81.2367
LeftForeArm  29.7033 1.95974 2.95653
LeftHand  -0.646216 -3.74512 8.47046
RightShoulder  7.45443e-017 -2.42657e-020 1.96277e-018
RightArm  -21.1907 -9.99443 73.2789
RightForeArm  26.7277 9.62041 9.78109
RightHand  -1.48612 10.9165 -10.9297
LeftUpLeg  -13.3705 -1.81634 -3.00976
LeftLeg  3.36381 6.66511 0.890566
LeftFoot  5.56363 -0.301912 1.80413
LeftToes  3.91355e-005 3.11907e-005 -4.10385e-006
562
root  0.659176 66.4378 1.3818 177.291 12.7938 178.069
RightUpLeg  6.19961 3.91199 0.869312
RightLeg  19.4409 -1.38508 -0.722196
RightFoot  -20.7643 0.0060759 1.79653
RightToes  2.84633e-005 7.89722e-005 -0.000426369
Spine  1.81648 1.50076 -0.567554
Spine1  3.52233 2.80011 0.438998
HEad  34.213 1.69919 -7.54467
LeftShoulder1  -3.88251e-019 0 -3.92111e-022
LeftArm  -39.9594 15.9409 -81.1393
LeftForeArm  29.8152 1.95679 3.0075
LeftHand  -0.622465 -3.70093 8.20667
RightShoulder  7.45443e-017 -2.42657e-020 1.96277e-018
RightArm  -19.9919 -12.4833 73.6444
RightForeArm  24.1036 11.0477 9.77235
RightHand  -1.48977 11.0404 -10.8771
LeftUpLeg  -11.2473 -2.60198 -5.10088
LeftLeg  5.61548 8.14008 0.870726
LeftFoot  1.03444 -0.25599 2.28548
LeftToes  3.91355e-005 3.11907e-005 -4.10385e-006
563
root  0.695294 66.4348 -0.0307193 176.973 13.2031 176.535
RightUpLeg  4.00407 1.4013 -2.23998
RightLeg  27.6629 1.44092 0.627915
RightFoot  -18.0253 0.192833 5.62018
RightToes  2.84633e-005 7.89722e-005 -0.000426369
Spine  1.64677 1.47316 -1.53852
Spine1  3.10018 2.58819 -0.634972
HEad  34.3913 1.96815 -7.28962
LeftShoulder1  -3.88251e-019 0 -3.92111e-022
LeftArm  -40.2399 17.298 -81.3658
LeftForeArm  29.4057 1.9702 2.97758
LeftHand  -0.618269 -3.69966 8.15429
RightShoulder  7.45443e-017 -2.42657e-020 1.96277e-018
RightArm  -21.756 -14.4745 74.0353
RightForeArm  25.1473 10.5136 9.66834
RightHand  -1.36775 10.8896 -10.1104
LeftUpLeg  -9.58087 -2.97051 -6.84299
LeftLeg  6.75659 9.06406 0.610022
LeftFoot  -1.70155 -0.148429 1.86803
LeftToes  3.91355e-005 3.11907e-005 -4.10385e-006
564
root  0.690518 66.2618 -1.2715 177.099 13.6149 175.663
RightUpLeg  -1.22669 -1.13568 -4.73884
RightLeg  39.7002 3.28636 2.69937
RightFoot  -10.6113 -0.126116 7.7522
RightToes  2.84633e-005 7.89722e-005 -0.000426369
Spine  1.4495 1.39956 -2.18326
Spine1  2.63946 2.26412 -1.05951
HEad  33.9963 2.2166 -7.46404
LeftShoulder1  -3.88251e-019 0 -3.92111e-022
LeftArm  -40.2808 17.8735 -82.23
LeftForeArm  28.5374 1.99735 2.94094
LeftHand  -0.604191 -3.61916 8.04025
RightShoulder  7.45443e-017 -2.42657e-020 1.96277e-018
RightArm  -23.7235 -16.1961 73.959
RightForeArm  26.8756 9.87018 9.28
RightHand  -1.24126 10.5004 -9.43053
LeftUpLeg  -9.43432 -3.04195 -8.08813
LeftLeg  9.88656 9.76157 0.833786
LeftFoot  -5.11692 -0.0936831 2.32094
LeftToes  3.91355e-005 3.11907e-005 -4.10385e-006
565
root  0.714146 65.9541 -2.38249 176.308 14.0367 174.817
RightUpLeg  -6.83608 -3.01827 -6.73147
RightLeg  52.0883 2.4538 3.02883
RightFoot  -3.19496 -0.458465 6.24224
RightToes  2.84633e-005 7.89722e-005 -0.000426369
Spine  1.73448 1.25947 -2.60643
Spine1  3.18337 1.81673 -1.33679
HEad  32.5876 2.44208 -7.75198
LeftShoulder1  -3.88251e-019 0 -3.92111e-022
LeftArm  -40.0772 17.1451 -83.3418
LeftForeArm  28.0363 2.01554 2.80087
LeftHand  -0.57707 -3.7539 7.58774
RightShoulder  7.45443e-017 -2.42657e-020 1.96277e-018
RightArm  -24.5011 -17.2937 73.2653
RightForeArm  27.2774 9.7265 9.00921
RightHand  -1.24602 10.3433 -9.5545
LeftUpLeg  -9.16738 -2.25861 -9.60054
LeftLeg  14.3912 9.92122 1.79622
LeftFoot  -9.30214 -0.00411137 3.50739
LeftToes  3.91355e-005 3.11907e-005 -4.10385e-006
566
root  0.803169 65.7671 -3.45 174.797 14.373 174.312
RightUpLeg  -11.4682 -4.36897 -7.84515
RightLeg  61.4001 0.0927631 -0.335318
RightFoot  -1.86988 -0.283356 3.2647
RightToes  2.84633e-005 7.89722e-005 -0.000426369
Spine  2.39769 1.03869 -2.87011
Spine1  4.51685 1.20225 -1.35569
HEad  30.9192 2.8269 -7.84873
LeftShoulder1  -3.88251e-019 0 -3.92111e-022
LeftArm  -39.4886 14.6288 -83.7814
LeftForeArm  29.2751 1.98819 2.59439
LeftHand  -0.585298 -4.07441 7.45046
RightShoulder  7.45443e-017 -2.42657e-020 1.96277e-018
RightArm  -26.3534 -16.9852 72.6782
RightForeArm  28.5543 8.22079 8.53195
RightHand  -1.36487 10.6287 -10.2465
LeftUpLeg  -7.35308 -0.93302 -10.655
LeftLeg  17.3675 9.32941 2.4917
LeftFoot  -12.442 0.109763 3.63949
LeftToes  3.91355e-005 3.11907e-005 -4.10385e-006
567
root  0.952725 65.7764 -4.52444 173.974 14.5931 174.618
RightUpLeg  -15.7051 -5.11903 -7.49709
RightLeg  65.7793 -1.28055 -3.71371
RightFoot  -5.21484 -0.0421985 0.0939228
RightToes  2.84633e-005 7.89722e-005 -0.000426369
Spine  2.77021 0.773005 -2.855
Spine1  5.31412 0.603341 -0.895373
HEad  30.5659 3.34541 -7.88982
LeftShoulder1  -3.88251e-019 0 -3.92111e-022
LeftArm  -38.6099 11.1638 -83.4539
LeftForeArm  32.1699 1.91833 2.36325
LeftHand  -0.634916 -4.08196 8.05241
RightShoulder  7.45443e-017 -2.42657e-020 1.96277e-018
RightArm  -27.7385 -15.8012 72.8125
RightForeArm  29.6056 5.62203 6.77556
RightHand  -1.39365 10.4673 -10.5526
LeftUpLeg  -5.02889 -0.0367454 -10.5814
LeftLeg  18.4421 8.61764 2.56455
LeftFoot  -14.5545 0.1637 2.71544
LeftToes  3.91355e-005 3.11907e-005 -4.10385e-006
